<?xml version="1.0" encoding="UTF-8" standalone="no"?>
<!DOCTYPE svg PUBLIC "-//W3C//DTD SVG 1.1//EN" "http://www.w3.org/Graphics/SVG/1.1/DTD/svg11.dtd">
<svg width="100%" height="100%" viewBox="0 0 1667 1250" version="1.1" xmlns="http://www.w3.org/2000/svg" xmlns:xlink="http://www.w3.org/1999/xlink" xml:space="preserve" xmlns:serif="http://www.serif.com/" style="fill-rule:evenodd;clip-rule:evenodd;stroke-linejoin:round;stroke-miterlimit:2;">
    <g transform="matrix(-3.11161,0,0,3.09472,1652.18,-3.37077)">
        <g transform="matrix(2.89346,0,0,2.89346,-901.972,65.354)">
            <path d="M493.348,73.722L425.458,112.918L315.421,49.234L383.313,10.037L493.348,73.722Z" style="fill:rgb(18,20,44);fill-rule:nonzero;"/>
            <path d="M387.723,18.6L330.894,51.411L327.265,49.316L384.094,16.506L387.723,18.6Z" style="fill:white;fill-rule:nonzero;"/>
            <path d="M395.092,22.855L338.263,55.665L336.308,54.536L393.137,21.726L395.092,22.855Z" style="fill:white;fill-rule:nonzero;"/>
            <path d="M399.739,25.538L342.91,58.348L340.955,57.219L397.784,24.409L399.739,25.538Z" style="fill:white;fill-rule:nonzero;"/>
            <path d="M404.385,28.22L347.556,61.031L345.601,59.902L402.43,27.092L404.385,28.22Z" style="fill:white;fill-rule:nonzero;"/>
            <path d="M389.232,40.076L350.248,62.584L352.203,63.713L391.187,41.205L389.232,40.076Z" style="fill:white;fill-rule:nonzero;"/>
            <path d="M419.041,36.682L362.212,69.492L360.256,68.363L417.086,35.553L419.041,36.682Z" style="fill:white;fill-rule:nonzero;"/>
            <path d="M423.687,39.364L366.858,72.175L364.903,71.046L421.732,38.236L423.687,39.364Z" style="fill:white;fill-rule:nonzero;"/>
            <path d="M414.546,47.749L369.549,73.728L371.504,74.857L416.502,48.878L414.546,47.749Z" style="fill:white;fill-rule:nonzero;"/>
            <path d="M438.273,47.785L381.444,80.596L379.489,79.467L436.318,46.657L438.273,47.785Z" style="fill:white;fill-rule:nonzero;"/>
            <path d="M442.92,50.468L386.09,83.279L384.135,82.15L440.964,49.34L442.92,50.468Z" style="fill:white;fill-rule:nonzero;"/>
            <path d="M433.439,78.365L405.509,94.49L407.464,95.618L435.394,79.493L433.439,78.365Z" style="fill:white;fill-rule:nonzero;"/>
            <path d="M438.085,81.047L410.156,97.172L412.111,98.301L440.041,82.176L438.085,81.047Z" style="fill:white;fill-rule:nonzero;"/>
            <path d="M433.78,58.853L388.782,84.832L390.737,85.961L435.735,59.982L433.78,58.853Z" style="fill:white;fill-rule:nonzero;"/>
        </g>
        <g transform="matrix(1.62462,0,0,1.62462,-18.6587,-55.1518)">
            <path d="M115.633,81.164C115.633,81.164 113.345,76.805 109.276,79.747C105.207,82.69 93.032,91.954 91.109,92.853C89.186,93.752 87.025,92.862 85.753,94.006C84.482,95.151 85.245,96.931 86.77,98.838C88.296,100.745 115.633,81.164 115.633,81.164Z" style="fill:rgb(246,136,65);fill-rule:nonzero;"/>
            <path d="M114.844,91.721C114.844,89.05 113.22,85.946 111.216,84.789C110.311,84.266 109.486,84.234 108.85,84.597L38.559,125.173L43.484,135.109L113.22,94.813C114.198,94.512 114.844,93.405 114.844,91.721Z" style="fill:rgb(18,20,44);fill-rule:nonzero;"/>
            <path d="M124.868,77.257C124.088,76.807 123.377,76.779 122.829,77.092L112.709,82.933L116.937,91.484L126.597,85.903C127.441,85.642 127.998,84.688 127.998,83.236C127.998,80.932 126.597,78.255 124.868,77.257Z" style="fill:rgb(18,20,44);fill-rule:nonzero;"/>
            <path d="M122.012,88.019C122.012,84.975 120.097,81.547 117.88,80.122C116.269,79.088 111.861,80.19 106.606,83.495C102.554,86.044 88.929,95.965 88.929,95.965C88.929,95.965 92.492,97.439 93.573,100.872C94.653,104.305 93.269,106.493 93.269,106.493C93.269,106.493 110.705,98.065 113.379,96.352C120.084,92.057 122.012,90.531 122.012,88.019Z" style="fill:rgb(246,136,65);fill-rule:nonzero;"/>
            <path d="M64.455,111.723C63.55,111.201 62.732,111.218 62.042,111.462C61.387,111.693 60.902,112.275 60.902,112.275C61.563,111.988 62.363,111.903 63.268,112.425C65.272,113.582 66.897,116.686 66.897,119.358C66.897,120.577 66.537,121.584 65.978,122.111C65.978,122.111 66.493,121.993 66.653,121.921C67.634,121.474 68.083,120.34 68.083,118.657C68.083,115.984 66.459,112.881 64.455,111.723Z" style="fill:rgb(246,136,65);fill-rule:nonzero;"/>
            <path d="M91.071,96.297C90.167,95.774 89.348,95.791 88.658,96.034C88.004,96.266 87.519,96.848 87.519,96.848C88.179,96.561 88.98,96.475 89.884,96.998C91.888,98.155 93.513,101.258 93.513,103.93C93.513,105.15 93.153,106.157 92.594,106.684C92.594,106.684 93.11,106.566 93.269,106.493C94.251,106.047 94.699,104.912 94.699,103.229C94.699,100.557 93.075,97.453 91.071,96.297Z" style="fill:rgb(246,136,65);fill-rule:nonzero;"/>
            <path d="M42.299,124.548C41.395,124.025 40.576,124.042 39.886,124.286C39.232,124.517 38.747,125.099 38.747,125.099C39.407,124.812 40.208,124.726 41.112,125.249C43.116,126.406 44.741,129.51 44.741,132.182C44.741,133.402 44.381,134.408 43.822,134.935C43.822,134.935 44.338,134.818 44.497,134.745C45.479,134.298 45.927,133.164 45.927,131.48C45.927,128.808 44.303,125.704 42.299,124.548Z" style="fill:rgb(246,136,65);fill-rule:nonzero;"/>
            <path d="M44.753,132.17C44.753,129.498 43.129,126.394 41.125,125.237C40.122,124.659 39.215,124.676 38.559,125.173C38.559,125.173 33.588,127.04 30.421,131.32C28.765,133.558 31.76,139.072 33.759,138.848C37.715,138.404 43.484,135.109 43.484,135.109C44.26,134.67 44.753,133.64 44.753,132.17Z" style="fill:rgb(246,136,65);fill-rule:nonzero;"/>
            <path d="M35.111,136.502C35.111,138.5 33.896,139.419 32.397,138.554C30.899,137.688 29.684,135.367 29.684,133.368C29.684,131.37 30.899,130.452 32.397,131.317C33.896,132.182 35.111,134.504 35.111,136.502Z" style="fill:rgb(246,136,65);fill-rule:nonzero;"/>
            <path d="M33.518,136.039C33.518,134.737 32.726,133.223 31.749,132.659C31.261,132.377 30.88,132.504 30.499,132.628C29.529,132.943 28.03,133.291 26.495,133.94L26.494,133.94C26.494,133.94 21.856,135.699 18.684,137.961C17.191,139.025 15.057,140.804 13.96,142.247C17.661,141.948 22.406,142.247 23.878,142.248C25.51,142.248 27.231,141.905 28.647,141.325C28.827,141.251 30.153,140.495 30.385,140.297C30.924,139.834 31.632,139.121 32.476,138.034C32.614,137.857 33.518,136.949 33.518,136.039Z" style="fill:rgb(246,136,65);fill-rule:nonzero;"/>
            <path d="M22.855,136.824C22.41,136.387 21.294,136.949 21.038,137.511C18.635,138.67 15.978,139.978 14.149,142.008C13.91,142.248 14.042,142.299 14.168,142.25C14.646,142.064 15.964,141.065 17.357,140.216C18.844,139.308 20.364,138.573 21.329,137.967C22.256,138.071 23.507,137.463 22.855,136.824Z" style="fill:rgb(18,20,44);fill-rule:nonzero;"/>
            <path d="M114.695,81.339C110.548,82.398 106.722,84.558 103.177,86.909C99.679,89.229 95.873,91.762 92.902,94.747C92.795,94.855 92.933,95.039 93.066,94.959C96.712,92.765 99.93,89.811 103.523,87.502C107.136,85.18 110.9,83.371 114.823,81.644C115.001,81.566 114.872,81.293 114.695,81.339Z" style="fill:white;fill-rule:nonzero;"/>
            <path d="M81.739,100.93C76.354,103.798 70.179,107.642 65.861,110.608C65.74,110.691 65.842,110.873 65.978,110.806C71.418,108.142 77.027,104.815 81.923,101.246C82.112,101.109 81.949,100.818 81.739,100.93Z" style="fill:white;fill-rule:nonzero;"/>
            <path d="M58.741,114.762C56.162,115.873 53.758,117.513 51.358,118.967C48.939,120.431 46.478,121.879 44.201,123.557C44.112,123.622 44.188,123.762 44.29,123.708C46.786,122.383 49.174,120.833 51.601,119.384C54.019,117.939 56.608,116.659 58.873,114.988C59.01,114.887 58.896,114.695 58.741,114.762Z" style="fill:white;fill-rule:nonzero;"/>
            <path d="M39.746,125.582C37.755,125.92 33.923,129.055 33.216,130.083L33.341,130.208C34.556,129.604 38.996,126.626 39.932,125.901C40.094,125.775 39.922,125.552 39.746,125.582Z" style="fill:white;fill-rule:nonzero;"/>
            <path d="M120.3,86.889C120.258,86.75 120.016,86.768 120.035,86.925C120.095,87.429 119.952,87.958 119.809,88.442C119.685,88.862 119.462,89.259 119.451,89.701C119.446,89.922 119.76,90.075 119.913,89.892C120.581,89.092 120.584,87.832 120.3,86.889Z" style="fill:rgb(246,136,65);fill-rule:nonzero;"/>
            <path d="M118.113,88.939C118.02,88.739 117.728,88.852 117.721,89.045C117.692,89.878 117.737,90.668 117.561,91.493C117.521,91.676 117.59,91.835 117.742,91.939C117.85,92.013 117.922,91.999 118.047,91.979C118.17,91.96 118.301,91.824 118.323,91.703C118.485,90.794 118.513,89.794 118.113,88.939Z" style="fill:rgb(246,136,65);fill-rule:nonzero;"/>
            <path d="M96.477,100.678L96.295,100.726C95.996,101.027 96.215,101.605 96.144,102C96.069,102.424 95.723,102.886 95.768,103.307L95.819,103.359C96.658,103.294 97.307,101.015 96.477,100.678Z" style="fill:rgb(246,136,65);fill-rule:nonzero;"/>
            <path d="M43.359,131.222L43.293,131.24C43.088,131.75 43.176,132.353 43.062,132.891C42.939,133.472 42.63,133.951 42.452,134.504C42.36,134.793 42.745,134.998 42.95,134.794C43.67,134.078 44.155,132.024 43.359,131.222Z" style="fill:rgb(246,136,65);fill-rule:nonzero;"/>
            <path d="M40.631,133.152C40.553,133.04 40.351,133.07 40.357,133.225C40.371,133.596 40.428,133.955 40.413,134.328C40.397,134.707 40.324,135.075 40.29,135.451C40.253,135.872 40.896,135.932 41.008,135.549C41.228,134.799 41.079,133.797 40.631,133.152Z" style="fill:rgb(246,136,65);fill-rule:nonzero;"/>
            <path d="M29.983,138.009C29.429,138.378 29.009,138.905 28.434,139.262C27.848,139.624 27.155,139.707 26.594,140.089C26.45,140.187 26.465,140.415 26.644,140.467C27.885,140.826 29.924,139.395 30.164,138.148C30.182,138.051 30.079,137.945 29.983,138.009Z" style="fill:rgb(246,136,65);fill-rule:nonzero;"/>
        </g>
        <g transform="matrix(1.45332,0,0,1.45332,-72.1093,-36.0012)">
            <path d="M288.677,100.68L288.677,104.9C288.677,110.441 297.123,114.934 307.542,114.934C317.959,114.934 326.405,110.441 326.405,104.9L326.405,100.68L288.677,100.68Z" style="fill:rgb(204,188,188);fill-rule:nonzero;"/>
            <path d="M307.542,91.275C297.123,91.275 288.677,95.766 288.677,101.308C288.677,106.849 297.123,111.342 307.542,111.342C317.96,111.342 326.405,106.849 326.405,101.308C326.405,95.766 317.96,91.275 307.542,91.275Z" style="fill:rgb(237,220,218);fill-rule:nonzero;"/>
            <path d="M307.47,107.615C299.907,107.615 293.775,104.353 293.775,100.331C293.775,96.307 299.907,93.046 307.47,93.046C315.034,93.046 321.166,96.307 321.166,100.331C321.166,104.353 315.034,107.615 307.47,107.615Z" style="fill:rgb(220,204,203);fill-rule:nonzero;"/>
            <path d="M307.542,94.292C302.913,94.292 299.16,96.287 299.16,98.75C299.16,101.211 302.913,103.207 307.542,103.207C312.17,103.207 315.922,101.211 315.922,98.75C315.922,96.287 312.17,94.292 307.542,94.292Z" style="fill:rgb(237,220,218);fill-rule:nonzero;"/>
            <path d="M301.7,90.647L301.7,97.573C301.7,99.289 304.315,100.68 307.542,100.68C310.767,100.68 313.382,99.289 313.382,97.573L313.382,90.647L301.7,90.647Z" style="fill:rgb(194,178,176);fill-rule:nonzero;"/>
            <path d="M307.47,90.481C304.016,90.481 301.216,91.97 301.216,93.807C301.216,95.644 304.016,97.134 307.47,97.134C310.924,97.134 313.724,95.644 313.724,93.807C313.724,91.97 310.924,90.481 307.47,90.481Z" style="fill:rgb(18,20,44);fill-rule:nonzero;"/>
            <path d="M307.542,88.027C303.614,88.027 300.43,89.72 300.43,91.81C300.43,93.899 303.614,95.592 307.542,95.592C311.468,95.592 314.652,93.899 314.652,91.81C314.652,89.72 311.468,88.027 307.542,88.027Z" style="fill:rgb(18,20,44);fill-rule:nonzero;"/>
            <path d="M307.47,87.154C304.016,87.154 301.216,88.643 301.216,90.481C301.216,92.318 304.016,93.807 307.47,93.807C310.924,93.807 313.724,92.318 313.724,90.481C313.724,88.643 310.924,87.154 307.47,87.154Z" style="fill:rgb(18,20,44);fill-rule:nonzero;"/>
            <path d="M307.541,53.433C301.373,53.433 296.36,58.329 296.146,64.446L296.126,64.637L296.128,64.826L296.126,64.848L296.128,64.877C296.141,67.59 296.418,69.414 298.793,74.346C299.835,76.511 300.86,79.452 301.487,81.796C302.262,84.694 302.41,88.129 302.436,89.024C302.441,89.168 302.474,89.424 302.497,89.51C302.84,90.809 304.933,91.81 307.47,91.81C310.118,91.81 312.287,90.721 312.485,89.341C312.495,89.273 312.501,88.826 312.501,88.604C312.501,87.306 312.719,84.331 313.397,81.796C314.024,79.452 315.049,76.511 316.092,74.346C317.423,71.581 318.092,69.796 318.429,68.281C318.77,67.198 318.957,66.045 318.957,64.848C318.957,58.544 313.845,53.433 307.541,53.433Z" style="fill:rgb(18,20,44);fill-rule:nonzero;"/>
            <path d="M302.532,66.117C301.908,66.117 301.3,65.967 300.751,65.65C298.717,64.475 298.261,61.458 299.733,58.909C300.807,57.049 302.611,55.953 304.297,55.953C304.921,55.953 305.529,56.103 306.079,56.42C308.112,57.594 308.568,60.612 307.096,63.16C306.022,65.021 304.219,66.117 302.532,66.117Z" style="fill:rgb(18,20,44);fill-rule:nonzero;"/>
            <path d="M304.037,60.393C303.152,61.451 301.807,61.785 301.033,61.137C300.258,60.491 300.348,59.108 301.233,58.05C302.118,56.991 303.462,56.658 304.237,57.304C305.011,57.951 304.921,59.334 304.037,60.393Z" style="fill:white;fill-rule:nonzero;"/>
            <path d="M285.574,111.633C283.27,109.508 278.964,110.944 274.02,110.944C269.076,110.944 264.771,109.508 262.467,111.633L260.683,111.633L260.683,118.038C260.683,121.956 266.654,125.133 274.02,125.133C281.386,125.133 287.358,121.956 287.358,118.038L287.358,111.633L285.574,111.633Z" style="fill:rgb(204,188,188);fill-rule:nonzero;"/>
            <path d="M274.02,105.163C266.654,105.163 260.683,108.34 260.683,112.258C260.683,116.176 266.654,119.352 274.02,119.352C281.386,119.352 287.358,116.176 287.358,112.258C287.358,108.34 281.386,105.163 274.02,105.163Z" style="fill:rgb(237,220,218);fill-rule:nonzero;"/>
            <path d="M274.02,106.456C268.645,106.456 264.288,108.774 264.288,111.633C264.288,114.492 268.645,116.81 274.02,116.81C279.395,116.81 283.753,114.492 283.753,111.633C283.753,108.774 279.395,106.456 274.02,106.456Z" style="fill:rgb(221,207,207);fill-rule:nonzero;"/>
            <path d="M267.237,102.224L267.237,110.267C267.237,112.26 270.274,113.875 274.02,113.875C277.766,113.875 280.803,112.26 280.803,110.267L280.803,102.224L267.237,102.224Z" style="fill:rgb(194,178,176);fill-rule:nonzero;"/>
            <path d="M282.27,98.616L279.158,98.881L278.788,99.659C277.562,99.014 275.879,98.616 274.02,98.616C272.158,98.616 270.472,99.016 269.246,99.662L268.875,98.881L265.762,98.616C265.762,98.616 265.626,99.29 266.454,100.377C267.281,101.463 267.237,102.224 267.237,102.224C267.237,104.216 270.274,105.832 274.02,105.832C277.766,105.832 280.803,104.216 280.803,102.224L280.796,102.156C280.805,101.954 280.888,101.282 281.578,100.377C282.406,99.29 282.27,98.616 282.27,98.616Z" style="fill:rgb(18,20,44);fill-rule:nonzero;"/>
            <path d="M274.02,94.223C269.46,94.223 265.762,96.19 265.762,98.616C265.762,101.041 269.46,103.008 274.02,103.008C278.581,103.008 282.278,101.041 282.278,98.616C282.278,96.19 278.581,94.223 274.02,94.223Z" style="fill:rgb(18,20,44);fill-rule:nonzero;"/>
            <path d="M273.938,93.042C269.927,93.042 266.676,94.771 266.676,96.905C266.676,99.038 269.927,100.767 273.938,100.767C277.949,100.767 281.201,99.038 281.201,96.905C281.201,94.771 277.949,93.042 273.938,93.042Z" style="fill:rgb(18,20,44);fill-rule:nonzero;"/>
            <path d="M274.02,90.193C269.46,90.193 265.762,92.159 265.762,94.585C265.762,97.011 269.46,98.978 274.02,98.978C278.581,98.978 282.278,97.011 282.278,94.585C282.278,92.159 278.581,90.193 274.02,90.193Z" style="fill:rgb(18,20,44);fill-rule:nonzero;"/>
            <path d="M273.938,88.864C269.927,88.864 266.676,90.593 266.676,92.726C266.676,94.86 269.927,96.59 273.938,96.59C277.949,96.59 281.201,94.86 281.201,92.726C281.201,90.593 277.949,88.864 273.938,88.864Z" style="fill:rgb(18,20,44);fill-rule:nonzero;"/>
            <path d="M284.179,84.763C284.179,90.374 279.631,94.923 274.02,94.923C268.409,94.923 263.861,90.374 263.861,84.763C263.861,79.153 268.409,74.604 274.02,74.604C279.631,74.604 284.179,79.153 284.179,84.763Z" style="fill:rgb(18,20,44);fill-rule:nonzero;"/>
            <path d="M273.938,71.656C269.927,71.656 266.676,73.385 266.676,75.518C266.676,77.652 269.927,79.382 273.938,79.382C277.949,79.382 281.201,77.652 281.201,75.518C281.201,73.385 277.949,71.656 273.938,71.656Z" style="fill:rgb(18,20,44);fill-rule:nonzero;"/>
            <path d="M274.02,68.806C269.46,68.806 265.762,70.773 265.762,73.199C265.762,75.624 269.46,77.591 274.02,77.591C278.581,77.591 282.278,75.624 282.278,73.199C282.278,70.773 278.581,68.806 274.02,68.806Z" style="fill:rgb(18,20,44);fill-rule:nonzero;"/>
            <path d="M273.938,67.792C269.927,67.792 266.676,69.522 266.676,71.656C266.676,73.789 269.927,75.518 273.938,75.518C277.949,75.518 281.201,73.789 281.201,71.656C281.201,69.522 277.949,67.792 273.938,67.792Z" style="fill:rgb(18,20,44);fill-rule:nonzero;"/>
            <path d="M274.02,28.634C266.857,28.634 261.036,34.32 260.788,41.422L260.764,41.644L260.765,41.864L260.764,41.89L260.765,41.923C260.782,45.074 261.103,47.191 263.861,52.919C265.072,55.433 266.262,58.848 266.99,61.571C267.89,64.935 268.062,68.925 268.092,69.964C268.097,70.131 268.136,70.428 268.163,70.529C268.562,72.037 270.992,73.199 273.938,73.199C277.012,73.199 279.532,71.935 279.761,70.331C279.772,70.253 279.779,69.734 279.779,69.477C279.779,67.969 280.034,64.514 280.821,61.571C281.549,58.848 282.739,55.433 283.95,52.919C285.497,49.708 286.273,47.636 286.664,45.877C287.06,44.618 287.276,43.28 287.276,41.89C287.276,34.569 281.341,28.634 274.02,28.634Z" style="fill:rgb(18,20,44);fill-rule:nonzero;"/>
            <path d="M268.204,43.363C267.479,43.363 266.772,43.188 266.134,42.82C263.773,41.457 263.244,37.952 264.953,34.993C266.2,32.833 268.294,31.56 270.253,31.56C270.978,31.56 271.684,31.734 272.322,32.103C274.683,33.466 275.213,36.971 273.503,39.93C272.257,42.09 270.162,43.363 268.204,43.363Z" style="fill:rgb(18,20,44);fill-rule:nonzero;"/>
            <path d="M269.951,36.716C268.923,37.945 267.361,38.332 266.462,37.581C265.564,36.829 265.668,35.223 266.695,33.994C267.723,32.765 269.285,32.378 270.183,33.129C271.083,33.881 270.978,35.486 269.951,36.716Z" style="fill:white;fill-rule:nonzero;"/>
        </g>
        <g transform="matrix(-1.91663,4.17604,3.63245,1.68539,945.434,-1756.82)">
            <g transform="matrix(1,0,0,1,14.256,-94.2165)">
                <path d="M426.527,182.657C427.051,183.938 428.541,184.863 429.737,185.994C430.573,186.785 431.052,187.609 431.097,188.482C431.122,188.948 431.085,189.426 430.889,189.864C430.667,190.366 428.309,192.064 426.951,191.037C426.749,190.884 426.317,190.963 426.456,191.136C426.874,191.658 427.542,191.706 428.195,191.7C429.801,191.682 431.144,190.806 431.509,189.981C431.967,188.945 431.874,187.691 431.027,186.62C429.896,185.191 427.704,184.11 426.689,182.638L426.527,182.657Z" style="fill:rgb(239,64,65);fill-rule:nonzero;"/>
            </g>
            <g transform="matrix(1,0,0,1,14.256,-94.2165)">
                <path d="M435.187,180.995C434.72,180.593 433.517,179.461 433.689,179.362C434.08,179.137 434.809,179.779 435.229,180.315C435.484,180.64 435.589,181.053 435.737,181.441C435.501,181.259 435.305,181.098 435.187,180.995ZM442.445,177.654C442.559,178.456 442.674,179.179 442.566,179.969C442.5,180.45 442.571,180.985 441.5,181.284C440.733,181.499 439.812,180.962 439.126,180.279C438.859,179.919 438.578,179.612 438.36,179.426C438.197,179.287 437.79,179.347 437.908,179.516C438.076,179.754 438.895,180.454 439.196,181.284C439.376,181.777 439.36,182.805 438.055,182.724C437.671,182.701 437.091,182.385 436.544,182.021C436.166,180.756 435.257,179.247 433.557,178.945C433.051,178.855 432.969,179.145 433.179,179.423C433.887,180.363 434.694,181.162 435.892,181.945C436.021,182.471 436.053,183.001 436.087,183.446C436.163,184.47 435.783,184.799 435.319,184.723C434.754,184.632 433.868,183.981 433.7,183.788C433.337,183.371 433.037,182.949 432.357,182.575C432.131,182.451 431.785,182.583 431.963,182.741C432.165,182.919 432.653,183.252 433.044,183.666C433.424,184.071 433.407,184.542 433.368,184.999C433.328,185.469 433.462,186.223 432.018,185.948C430.967,185.746 429.774,184.301 429.286,183.754C429.082,183.526 428.666,183.533 428.931,183.925C429.383,184.592 431.451,186.874 433.199,186.451C434.017,186.253 433.928,185.273 433.944,184.835C433.951,184.651 433.931,184.475 433.894,184.303C434.856,185.198 436.22,185.577 436.607,184.522C436.787,184.033 436.824,183.249 436.648,182.427C437.332,182.832 438.331,183.346 439.098,183.168C440.165,182.919 440.089,182.031 439.666,181.16C440.304,181.562 441.039,181.827 441.761,181.681C443.644,181.302 443.13,178.557 442.791,177.642C442.748,177.524 442.428,177.54 442.445,177.654Z" style="fill:rgb(239,64,65);fill-rule:nonzero;"/>
            </g>
        </g>
    </g>
</svg>
