<?xml version="1.0" encoding="UTF-8" standalone="no"?>
<!DOCTYPE svg PUBLIC "-//W3C//DTD SVG 1.1//EN" "http://www.w3.org/Graphics/SVG/1.1/DTD/svg11.dtd">
<svg width="100%" height="100%" viewBox="0 0 1667 1250" version="1.1" xmlns="http://www.w3.org/2000/svg" xmlns:xlink="http://www.w3.org/1999/xlink" xml:space="preserve" xmlns:serif="http://www.serif.com/" style="fill-rule:evenodd;clip-rule:evenodd;stroke-linejoin:round;stroke-miterlimit:2;">
    <g transform="matrix(-5.12831,2.74173e-15,2.73219e-15,3.95275,5377.6,-2567.97)">
        <path d="M723.617,737.506L723.978,900.488L733.22,905.859L732.867,742.68L723.617,737.506Z" style="fill:rgb(18,20,40);fill-rule:nonzero;"/>
        <path d="M732.867,742.68L733.22,905.859L843.3,842.305L842.941,679.322L732.867,742.68Z" style="fill:rgb(18,20,40);fill-rule:nonzero;"/>
        <path d="M723.617,737.506L732.867,742.68L842.941,679.322L833.697,673.953L723.617,737.506Z" style="fill:rgb(18,20,40);fill-rule:nonzero;"/>
        <path d="M772.763,771.473C772.763,772.973 771.789,774.187 770.585,774.187C769.382,774.187 768.408,772.973 768.408,771.473C768.408,769.974 769.382,768.758 770.585,768.758C771.789,768.758 772.763,769.974 772.763,771.473Z" style="fill:rgb(137,136,136);fill-rule:nonzero;"/>
        <path d="M754.626,878.24C755.972,877.463 757.064,875.58 757.058,874.025C757.054,872.476 755.957,871.853 754.609,872.631C753.263,873.408 752.173,875.295 752.177,876.844C752.179,878.4 753.279,879.017 754.626,878.24ZM750.005,873.119L759.275,867.767L759.306,878.221L750.035,883.572L750.005,873.119Z" style="fill:rgb(248,246,246);fill-rule:nonzero;"/>
        <path d="M754.609,872.631C755.957,871.853 757.054,872.476 757.058,874.025C757.064,875.58 755.972,877.463 754.626,878.24C753.279,879.017 752.179,878.4 752.177,876.844C752.173,875.295 753.263,873.406 754.609,872.631Z" style="fill:rgb(23,46,63);fill-rule:nonzero;"/>
        <path d="M755.072,872.416C755.072,872.416 758.125,871.594 758.445,874.699C758.597,876.15 757.558,878.5 754.017,878.5L755.072,872.416Z" style="fill:rgb(23,46,63);fill-rule:nonzero;"/>
        <path d="M757.96,876.111L757.558,875.228C768.429,870.262 780.72,854.814 784.761,849.738C785.242,849.131 785.613,848.666 785.853,848.377C792.394,840.539 792.101,799.662 792.097,799.252L793.066,799.242C793.08,800.937 793.365,840.889 786.595,848.998C786.357,849.283 785.994,849.742 785.517,850.342C781.443,855.461 769.042,871.045 757.96,876.111Z" style="fill:rgb(23,46,63);fill-rule:nonzero;"/>
        <path d="M791.099,787.373L794.687,785.287L794.652,798.162L791.066,800.248L791.099,787.373Z" style="fill:rgb(246,136,65);fill-rule:nonzero;"/>
        <path d="M789.14,786.24L792.726,784.156L794.687,785.287L791.099,787.373L789.14,786.24Z" style="fill:rgb(118,92,29);fill-rule:nonzero;"/>
        <path d="M791.099,787.373L791.066,800.248L789.103,799.115L789.14,786.24L791.099,787.373Z" style="fill:rgb(246,136,65);fill-rule:nonzero;"/>
        <path d="M777.08,774.318L777.859,773.865L777.855,775.109L777.076,775.56L777.08,774.318Z" style="fill:rgb(61,62,62);fill-rule:nonzero;"/>
        <path d="M770.259,770.381L771.039,769.928L777.859,773.865L777.08,774.318L770.259,770.381Z" style="fill:rgb(68,70,70);fill-rule:nonzero;"/>
        <path d="M777.08,774.318L777.076,775.56L770.255,771.623L770.259,770.381L777.08,774.318Z" style="fill:rgb(42,43,43);fill-rule:nonzero;"/>
        <path d="M779.455,776.474L783.353,774.209L783.345,778.055L779.443,780.32L779.455,776.474Z" style="fill:rgb(197,195,196);fill-rule:nonzero;"/>
        <path d="M774.693,773.726L778.595,771.461L783.353,774.209L779.455,776.474L774.693,773.726Z" style="fill:rgb(220,218,219);fill-rule:nonzero;"/>
        <path d="M779.455,776.474L779.443,780.32L774.683,777.572L774.693,773.726L779.455,776.474Z" style="fill:rgb(137,136,136);fill-rule:nonzero;"/>
        <path d="M780.265,783.051L779.095,782.369L779.078,776.428L780.248,777.109L780.265,783.051Z" style="fill:rgb(42,43,43);fill-rule:nonzero;"/>
        <path d="M780.248,777.109L779.078,776.428L784.248,773.443L785.417,774.123L780.248,777.109Z" style="fill:rgb(68,70,70);fill-rule:nonzero;"/>
        <path d="M785.417,774.123L785.435,780.066L780.265,783.051L780.248,777.109L785.417,774.123Z" style="fill:rgb(61,63,63);fill-rule:nonzero;"/>
        <path d="M790.882,783.267L798.685,778.734L798.664,786.705L790.859,791.238L790.882,783.267Z" style="fill:rgb(246,136,65);fill-rule:nonzero;"/>
        <path d="M780.15,777.07L787.953,772.537L798.685,778.734L790.882,783.267L780.15,777.07Z" style="fill:rgb(246,136,65);fill-rule:nonzero;"/>
        <path d="M790.882,783.267L790.859,791.238L780.128,785.043L780.15,777.07L790.882,783.267Z" style="fill:rgb(246,136,65);fill-rule:nonzero;"/>
        <path d="M793.548,789.791L792.378,789.111L792.363,783.17L793.533,783.849L793.548,789.791Z" style="fill:rgb(42,43,43);fill-rule:nonzero;"/>
        <path d="M793.533,783.849L792.363,783.17L797.533,780.185L798.703,780.865L793.533,783.849Z" style="fill:rgb(68,70,70);fill-rule:nonzero;"/>
        <path d="M798.703,780.865L798.72,786.805L793.548,789.791L793.533,783.849L798.703,780.865Z" style="fill:rgb(61,63,63);fill-rule:nonzero;"/>
    </g>
    <g transform="matrix(-4.84334,-2.77556e-15,-2.84495e-15,3.72549,3504.41,206.042)">
        <path d="M487.658,68.772L488.041,242.638L497.902,248.368L497.523,74.292L487.658,68.772Z" style="fill:rgb(18,20,40);fill-rule:nonzero;"/>
        <path d="M497.523,74.292L497.902,248.368L615.333,180.57L614.951,6.704L497.523,74.292Z" style="fill:rgb(18,20,40);fill-rule:nonzero;"/>
        <path d="M487.658,68.772L497.523,74.292L614.951,6.704L605.089,0.973L487.658,68.772Z" style="fill:rgb(18,20,40);fill-rule:nonzero;"/>
        <path d="M497.519,154.505L497.902,248.368L523.421,233.635L523.421,139.878L497.519,154.505Z" style="fill:rgb(246,136,65);fill-rule:nonzero;"/>
        <path d="M538.392,79.944L540.736,223.776L566.253,205.817L563.855,64.341L538.392,79.944Z" style="fill:rgb(246,136,65);fill-rule:nonzero;"/>
        <path d="M518.158,172.132L518.421,236.607L543.939,221.874L543.939,156.048L518.158,172.132Z" style="fill:rgb(246,136,65);fill-rule:nonzero;"/>
        <path d="M557.947,120.047L558.33,213.911L583.847,199.178L583.847,105.42L557.947,120.047Z" style="fill:rgb(246,136,65);fill-rule:nonzero;"/>
        <path d="M578.585,137.674L578.849,202.149L604.367,187.416L604.367,121.59L578.585,137.674Z" style="fill:rgb(246,136,65);fill-rule:nonzero;"/>
        <g>
            <clipPath id="_clip1">
                <path d="M552.251,82.672L586.412,156.384C586.621,156.84 586.486,157.431 586.011,157.892C585.365,158.519 584.336,158.67 583.714,158.231C583.548,158.115 583.429,157.97 583.353,157.807L549.193,84.094C549.267,84.256 549.388,84.401 549.552,84.517C550.175,84.957 551.203,84.806 551.847,84.181C552.324,83.719 552.462,83.126 552.251,82.672Z"/>
            </clipPath>
            <g clip-path="url(#_clip1)">
                <path d="M552.251,82.672L586.412,156.384L586.437,156.444L552.275,82.731L552.251,82.672Z" style="fill:rgb(18,20,40);fill-rule:nonzero;"/>
                <path d="M552.275,82.731L586.437,156.444L586.472,156.552L552.312,82.838L552.275,82.731Z" style="fill:rgb(18,20,40);fill-rule:nonzero;"/>
                <path d="M552.312,82.838L586.472,156.552L586.496,156.675L552.337,82.961L552.312,82.838Z" style="fill:rgb(18,20,40);fill-rule:nonzero;"/>
                <path d="M552.337,82.961L586.496,156.675L586.507,156.817L552.347,83.103L552.337,82.961Z" style="fill:rgb(18,20,40);fill-rule:nonzero;"/>
                <path d="M552.347,83.103L586.507,156.817L586.496,157.002L552.335,83.288L552.347,83.103Z" style="fill:rgb(18,20,40);fill-rule:nonzero;"/>
                <path d="M552.335,83.288L586.496,157.002C586.46,157.252 586.343,157.508 586.152,157.74L551.992,84.026C552.183,83.794 552.3,83.538 552.335,83.288Z" style="fill:rgb(18,20,40);fill-rule:nonzero;"/>
                <path d="M551.992,84.026L586.152,157.74L586.011,157.892L586.003,157.901L551.843,84.187L551.847,84.18L551.992,84.026Z" style="fill:rgb(18,20,40);fill-rule:nonzero;"/>
                <path d="M551.843,84.187L586.003,157.901L585.871,158.016L551.71,84.302L551.843,84.187Z" style="fill:rgb(18,20,40);fill-rule:nonzero;"/>
                <path d="M551.71,84.302L585.871,158.016L585.746,158.108L551.585,84.395L551.71,84.302Z" style="fill:rgb(18,20,40);fill-rule:nonzero;"/>
                <path d="M551.585,84.395L585.746,158.108L585.625,158.186L551.464,84.472L551.585,84.395Z" style="fill:rgb(18,20,40);fill-rule:nonzero;"/>
                <path d="M551.464,84.472L585.625,158.186L585.5,158.254L551.339,84.542L551.464,84.472Z" style="fill:rgb(18,20,40);fill-rule:nonzero;"/>
                <path d="M551.339,84.542L585.5,158.254L585.373,158.314L551.21,84.601L551.339,84.542Z" style="fill:rgb(18,20,40);fill-rule:nonzero;"/>
                <path d="M551.21,84.601L585.373,158.314L585.236,158.367L551.076,84.653L551.21,84.601Z" style="fill:rgb(18,20,40);fill-rule:nonzero;"/>
                <path d="M551.076,84.653L585.236,158.367L585.085,158.412L550.925,84.7L551.076,84.653Z" style="fill:rgb(18,20,40);fill-rule:nonzero;"/>
                <path d="M550.925,84.7L585.085,158.412L584.917,158.451L550.757,84.737L550.925,84.7Z" style="fill:rgb(18,20,40);fill-rule:nonzero;"/>
                <path d="M550.757,84.737L584.917,158.451L584.708,158.477L550.548,84.763L550.757,84.737Z" style="fill:rgb(18,20,40);fill-rule:nonzero;"/>
                <path d="M550.548,84.763L584.708,158.477C584.343,158.504 583.988,158.426 583.714,158.231C583.548,158.115 583.429,157.97 583.353,157.807L549.193,84.094C549.267,84.256 549.388,84.401 549.552,84.517C549.83,84.712 550.183,84.791 550.548,84.763Z" style="fill:rgb(18,20,40);fill-rule:nonzero;"/>
            </g>
        </g>
        <path d="M551.894,82.25C552.517,82.689 552.496,83.554 551.847,84.18C551.203,84.805 550.175,84.957 549.552,84.517C548.929,84.078 548.947,83.217 549.595,82.59C550.24,81.965 551.269,81.81 551.894,82.25Z" style="fill:rgb(208,73,2);fill-rule:nonzero;"/>
        <path d="M549.744,83.966C549.742,83.959 549.451,82.993 548.339,80.47C546.455,76.186 551.539,73.099 552.203,72.719C557.521,68.759 557.705,66.889 557.38,64.682C557.156,63.136 556.685,62.166 556.021,61.877C555.169,61.505 554.005,62.264 553.996,62.272L552.892,60.681C552.974,60.624 554.925,59.29 556.794,60.102C558.123,60.68 558.966,62.127 559.296,64.403C559.773,67.668 558.978,70.098 553.308,74.309L553.199,74.38C553.156,74.404 548.851,76.829 550.109,79.69C551.289,82.365 551.589,83.383 551.601,83.425L549.744,83.966Z" style="fill:rgb(231,232,233);fill-rule:nonzero;"/>
        <path d="M556.109,63.156L556.115,63.025L556.119,62.894L556.113,62.762L556.105,62.626L556.105,62.616L556.095,62.488L556.082,62.346L556.06,62.202L556.035,62.057L556.013,61.941L556.011,61.935L556.009,61.911L555.974,61.769L555.939,61.628L555.904,61.492L555.861,61.357L555.828,61.256L555.826,61.245L555.82,61.224L555.771,61.09L555.716,60.943L555.648,60.774L555.566,60.595L555.554,60.564L555.537,60.526C555.482,60.413 555.427,60.301 555.367,60.191L555.216,59.934L555.113,59.767L555.023,59.63L554.929,59.499L554.833,59.375L554.82,59.355L554.804,59.338L554.734,59.249L554.632,59.127L554.523,59.008L554.416,58.893L554.361,58.84L554.345,58.825L554.304,58.784L554.197,58.684L554.085,58.591L553.978,58.505L553.873,58.427L553.849,58.409L553.767,58.353L553.662,58.285L553.595,58.247L553.576,58.236L553.556,58.224L553.453,58.169L553.349,58.119L553.332,58.112L553.316,58.104L553.246,58.074L553.138,58.034L553.083,58.017L553.064,58.01L553.029,57.999L552.912,57.969L552.841,57.955L552.822,57.951L552.792,57.946L552.671,57.93L552.617,57.929L552.572,57.927L552.531,57.925L552.376,57.933L552.375,57.933L552.322,57.943L552.183,57.968L552.173,57.971L551.957,58.048L531.201,67.728L531.412,67.65L531.597,67.616L531.613,67.612L531.818,67.604L531.857,67.607L532.062,67.63L532.085,67.635L532.306,67.688L532.328,67.696L532.562,67.784L532.574,67.789L532.82,67.916L532.833,67.923L533.089,68.087C533.263,68.209 533.431,68.35 533.589,68.506L533.599,68.515C533.757,68.671 533.91,68.841 534.052,69.023L534.056,69.028C534.201,69.212 534.337,69.408 534.46,69.612L534.46,69.614C534.583,69.815 534.695,70.026 534.794,70.241L534.81,70.275C534.908,70.488 534.996,70.705 535.068,70.926L535.068,70.931C535.146,71.158 535.207,71.386 535.255,71.614L535.253,71.618C535.349,72.076 535.382,72.53 535.343,72.954C535.324,73.162 535.287,73.353 535.236,73.527L535.232,73.542C535.179,73.713 535.113,73.867 535.035,74.003L535.033,74.008C534.966,74.122 534.886,74.216 534.802,74.304L534.722,74.387C534.625,74.473 534.521,74.549 534.406,74.602L555.164,64.924C555.277,64.87 555.38,64.795 555.478,64.709L555.562,64.623L555.669,64.513L555.787,64.338L555.791,64.331L555.794,64.321L555.865,64.192L555.923,64.055L555.972,63.921L555.988,63.863L555.994,63.848L556.011,63.792L556.039,63.666L556.066,63.539L556.085,63.413L556.099,63.284L556.099,63.276L556.109,63.156Z" style="fill:rgb(246,136,65);fill-rule:nonzero;"/>
        <path d="M533.089,68.087C534.492,69.075 535.501,71.256 535.343,72.954C535.183,74.654 533.917,75.232 532.517,74.244C531.109,73.254 530.105,71.076 530.263,69.376C530.421,67.677 531.685,67.096 533.089,68.087Z" style="fill:rgb(198,143,6);fill-rule:nonzero;"/>
    </g>
    <g transform="matrix(5.37707,0,0,4.62694,-1568.21,112.3)">
        <path d="M411.164,109.955L410.795,239.383L399.605,245.886L399.972,116.46L411.164,109.955Z" style="fill:rgb(18,20,40);fill-rule:nonzero;"/>
        <path d="M399.972,116.46L399.605,245.886L291.897,183.701L292.265,54.275L399.972,116.46Z" style="fill:rgb(18,20,40);fill-rule:nonzero;"/>
        <path d="M411.164,109.955L399.972,116.46L292.265,54.275L303.457,47.771L411.164,109.955Z" style="fill:rgb(18,20,40);fill-rule:nonzero;"/>
        <path d="M364.432,112.598L364.432,111.451L344.75,100.028L344.75,101.175L364.432,112.598Z" style="fill:rgb(158,168,176);fill-rule:nonzero;"/>
        <path d="M386.34,125.315L386.34,124.168L365.424,112.028L365.424,113.175L386.34,125.315Z" style="fill:rgb(158,168,176);fill-rule:nonzero;"/>
        <path d="M292.146,69.494L291.648,70.353L303.619,77.301L303.619,76.153L292.146,69.494Z" style="fill:rgb(158,168,176);fill-rule:nonzero;"/>
        <path d="M321.762,87.832L321.762,86.684L304.61,76.729L304.61,77.877L321.762,87.832Z" style="fill:rgb(158,168,176);fill-rule:nonzero;"/>
        <path d="M399.356,132.87L399.602,133.011L411.36,126.423L410.875,125.557L399.609,131.87L387.333,124.744L387.333,125.891L399.356,132.87Z" style="fill:rgb(158,168,176);fill-rule:nonzero;"/>
        <path d="M343.758,100.599L343.758,99.451L322.754,87.261L322.754,88.408L343.758,100.599Z" style="fill:rgb(158,168,176);fill-rule:nonzero;"/>
        <path d="M364.432,103.667L364.432,102.52L344.75,91.097L344.75,92.244L364.432,103.667Z" style="fill:rgb(158,168,176);fill-rule:nonzero;"/>
        <path d="M386.34,116.384L386.34,115.238L365.424,103.097L365.424,104.244L386.34,116.384Z" style="fill:rgb(158,168,176);fill-rule:nonzero;"/>
        <path d="M292.146,60.563L291.648,61.422L303.619,68.37L303.619,67.222L292.146,60.563Z" style="fill:rgb(158,168,176);fill-rule:nonzero;"/>
        <path d="M321.762,78.902L321.762,77.754L304.61,67.798L304.61,68.946L321.762,78.902Z" style="fill:rgb(158,168,176);fill-rule:nonzero;"/>
        <path d="M399.356,123.938L399.602,124.08L411.36,117.493L410.875,116.626L399.609,122.939L387.333,115.813L387.333,116.961L399.356,123.938Z" style="fill:rgb(158,168,176);fill-rule:nonzero;"/>
        <path d="M343.758,91.668L343.758,90.521L322.754,78.329L322.754,79.477L343.758,91.668Z" style="fill:rgb(158,168,176);fill-rule:nonzero;"/>
        <path d="M321.762,107.523L304.61,97.568L304.61,98.716L321.762,108.671L321.762,107.523Z" style="fill:rgb(158,168,176);fill-rule:nonzero;"/>
        <path d="M344.75,122.015L364.432,133.437L364.432,132.29L344.75,120.867L344.75,122.015Z" style="fill:rgb(158,168,176);fill-rule:nonzero;"/>
        <path d="M365.424,134.014L386.34,146.154L386.34,145.008L365.424,132.867L365.424,134.014Z" style="fill:rgb(158,168,176);fill-rule:nonzero;"/>
        <path d="M292.146,90.334L291.648,91.192L303.619,98.14L303.619,96.992L292.146,90.334Z" style="fill:rgb(158,168,176);fill-rule:nonzero;"/>
        <path d="M399.356,153.709L399.602,153.851L411.36,147.263L410.875,146.396L399.609,152.709L387.333,145.583L387.333,146.73L399.356,153.709Z" style="fill:rgb(158,168,176);fill-rule:nonzero;"/>
        <path d="M343.758,120.29L322.754,108.099L322.754,109.246L343.758,121.438L343.758,120.29Z" style="fill:rgb(158,168,176);fill-rule:nonzero;"/>
        <path d="M344.75,142.853L364.432,154.277L364.432,153.129L344.75,141.706L344.75,142.853Z" style="fill:rgb(158,168,176);fill-rule:nonzero;"/>
        <path d="M365.424,154.853L386.34,166.993L386.34,165.847L365.424,153.705L365.424,154.853Z" style="fill:rgb(158,168,176);fill-rule:nonzero;"/>
        <path d="M292.146,111.172L291.648,112.031L303.619,118.979L303.619,117.831L292.146,111.172Z" style="fill:rgb(158,168,176);fill-rule:nonzero;"/>
        <path d="M399.356,174.548L399.602,174.689L411.36,168.102L410.875,167.235L399.609,173.548L387.333,166.422L387.333,167.569L399.356,174.548Z" style="fill:rgb(158,168,176);fill-rule:nonzero;"/>
        <path d="M343.758,141.129L322.754,128.939L322.754,130.086L343.758,142.277L343.758,141.129Z" style="fill:rgb(158,168,176);fill-rule:nonzero;"/>
        <path d="M321.762,128.362L304.61,118.408L304.61,119.555L321.762,129.51L321.762,128.362Z" style="fill:rgb(158,168,176);fill-rule:nonzero;"/>
        <path d="M292.146,121.095L291.648,121.954L303.619,128.902L303.619,127.754L292.146,121.095Z" style="fill:rgb(158,168,176);fill-rule:nonzero;"/>
        <path d="M365.424,164.777L386.34,176.916L386.34,175.77L365.424,163.629L365.424,164.777Z" style="fill:rgb(158,168,176);fill-rule:nonzero;"/>
        <path d="M321.762,138.285L304.61,128.33L304.61,129.478L321.762,139.433L321.762,138.285Z" style="fill:rgb(158,168,176);fill-rule:nonzero;"/>
        <path d="M344.75,152.776L364.432,164.2L364.432,163.053L344.75,151.629L344.75,152.776Z" style="fill:rgb(158,168,176);fill-rule:nonzero;"/>
        <path d="M399.356,184.472L399.602,184.613L411.36,178.025L410.875,177.159L399.609,183.471L387.333,176.345L387.333,177.493L399.356,184.472Z" style="fill:rgb(158,168,176);fill-rule:nonzero;"/>
        <path d="M343.758,151.052L322.754,138.861L322.754,140.009L343.758,152.2L343.758,151.052Z" style="fill:rgb(158,168,176);fill-rule:nonzero;"/>
        <path d="M365.424,184.623L386.34,196.763L386.34,195.617L365.424,183.476L365.424,184.623Z" style="fill:rgb(158,168,176);fill-rule:nonzero;"/>
        <path d="M292.146,140.942L291.648,141.801L303.619,148.749L303.619,147.601L292.146,140.942Z" style="fill:rgb(158,168,176);fill-rule:nonzero;"/>
        <path d="M343.758,170.9L322.754,158.708L322.754,159.856L343.758,172.047L343.758,170.9Z" style="fill:rgb(158,168,176);fill-rule:nonzero;"/>
        <path d="M321.762,158.132L304.61,148.178L304.61,149.325L321.762,159.28L321.762,158.132Z" style="fill:rgb(158,168,176);fill-rule:nonzero;"/>
        <path d="M399.356,204.318L399.602,204.46L411.36,197.872L410.875,197.006L399.609,203.318L387.333,196.193L387.333,197.34L399.356,204.318Z" style="fill:rgb(158,168,176);fill-rule:nonzero;"/>
        <path d="M344.75,172.623L364.432,184.047L364.432,182.9L344.75,171.476L344.75,172.623Z" style="fill:rgb(158,168,176);fill-rule:nonzero;"/>
        <path d="M321.762,178.971L304.61,169.016L304.61,170.163L321.762,180.119L321.762,178.971Z" style="fill:rgb(158,168,176);fill-rule:nonzero;"/>
        <path d="M344.75,192.315L344.75,193.462L364.432,204.886L364.432,203.739L344.75,192.315Z" style="fill:rgb(158,168,176);fill-rule:nonzero;"/>
        <path d="M322.754,179.547L322.754,180.695L343.758,192.886L343.758,191.739L322.754,179.547Z" style="fill:rgb(158,168,176);fill-rule:nonzero;"/>
        <path d="M365.424,205.463L386.34,217.602L386.34,216.456L365.424,204.316L365.424,205.463Z" style="fill:rgb(158,168,176);fill-rule:nonzero;"/>
        <path d="M399.356,225.157L399.602,225.299L411.36,218.711L410.875,217.845L399.609,224.157L387.333,217.032L387.333,218.179L399.356,225.157Z" style="fill:rgb(158,168,176);fill-rule:nonzero;"/>
        <path d="M292.146,161.781L291.648,162.64L303.619,169.588L303.619,168.44L292.146,161.781Z" style="fill:rgb(158,168,176);fill-rule:nonzero;"/>
        <path d="M365.424,144.93L386.34,157.07L386.34,155.923L365.424,143.783L365.424,144.93Z" style="fill:rgb(158,168,176);fill-rule:nonzero;"/>
        <path d="M399.356,164.624L399.602,164.766L411.36,158.178L410.875,157.312L399.609,163.624L387.333,156.498L387.333,157.646L399.356,164.624Z" style="fill:rgb(158,168,176);fill-rule:nonzero;"/>
        <path d="M321.762,118.439L304.61,108.484L304.61,109.631L321.762,119.587L321.762,118.439Z" style="fill:rgb(158,168,176);fill-rule:nonzero;"/>
        <path d="M343.758,131.206L322.754,119.015L322.754,120.162L343.758,132.353L343.758,131.206Z" style="fill:rgb(158,168,176);fill-rule:nonzero;"/>
        <path d="M292.146,101.248L291.648,102.107L303.619,109.056L303.619,107.908L292.146,101.248Z" style="fill:rgb(158,168,176);fill-rule:nonzero;"/>
        <path d="M344.75,132.93L364.432,144.353L364.432,143.206L344.75,131.783L344.75,132.93Z" style="fill:rgb(158,168,176);fill-rule:nonzero;"/>
        <path d="M343.758,110.522L343.758,109.374L322.754,97.184L322.754,98.331L343.758,110.522Z" style="fill:rgb(158,168,176);fill-rule:nonzero;"/>
        <path d="M364.432,122.521L364.432,121.374L344.75,109.951L344.75,111.098L364.432,122.521Z" style="fill:rgb(158,168,176);fill-rule:nonzero;"/>
        <path d="M321.762,96.607L304.61,86.652L304.61,87.801L321.762,97.756L321.762,96.607Z" style="fill:rgb(158,168,176);fill-rule:nonzero;"/>
        <path d="M399.356,142.793L399.602,142.935L411.36,136.347L410.875,135.481L399.609,141.793L387.333,134.667L387.333,135.815L399.356,142.793Z" style="fill:rgb(158,168,176);fill-rule:nonzero;"/>
        <path d="M292.146,79.418L291.648,80.276L303.619,87.224L303.619,86.077L292.146,79.418Z" style="fill:rgb(158,168,176);fill-rule:nonzero;"/>
        <path d="M365.424,121.952L365.424,123.098L386.34,135.238L386.34,134.092L365.424,121.952Z" style="fill:rgb(158,168,176);fill-rule:nonzero;"/>
        <path d="M365.424,173.708L386.34,185.848L386.34,184.701L365.424,172.56L365.424,173.708Z" style="fill:rgb(158,168,176);fill-rule:nonzero;"/>
        <path d="M292.146,130.026L291.648,130.885L303.619,137.834L303.619,136.685L292.146,130.026Z" style="fill:rgb(158,168,176);fill-rule:nonzero;"/>
        <path d="M321.762,147.216L304.61,137.262L304.61,138.409L321.762,148.365L321.762,147.216Z" style="fill:rgb(158,168,176);fill-rule:nonzero;"/>
        <path d="M344.75,161.708L364.432,173.132L364.432,171.984L344.75,160.56L344.75,161.708Z" style="fill:rgb(158,168,176);fill-rule:nonzero;"/>
        <path d="M399.356,193.402L399.602,193.544L411.36,186.956L410.875,186.09L399.609,192.402L387.333,185.277L387.333,186.424L399.356,193.402Z" style="fill:rgb(158,168,176);fill-rule:nonzero;"/>
        <path d="M343.758,159.984L322.754,147.793L322.754,148.94L343.758,161.131L343.758,159.984Z" style="fill:rgb(158,168,176);fill-rule:nonzero;"/>
        <path d="M292.146,150.866L291.648,151.724L303.619,158.673L303.619,157.524L292.146,150.866Z" style="fill:rgb(158,168,176);fill-rule:nonzero;"/>
        <path d="M344.75,182.547L364.432,193.971L364.432,192.823L344.75,181.399L344.75,182.547Z" style="fill:rgb(158,168,176);fill-rule:nonzero;"/>
        <path d="M365.424,194.547L386.34,206.687L386.34,205.539L365.424,193.4L365.424,194.547Z" style="fill:rgb(158,168,176);fill-rule:nonzero;"/>
        <path d="M399.356,214.242L399.602,214.383L411.36,207.795L410.875,206.929L399.609,213.242L387.333,206.116L387.333,207.264L399.356,214.242Z" style="fill:rgb(158,168,176);fill-rule:nonzero;"/>
        <path d="M343.758,180.823L322.754,168.632L322.754,169.779L343.758,181.97L343.758,180.823Z" style="fill:rgb(158,168,176);fill-rule:nonzero;"/>
        <path d="M321.762,168.055L304.61,158.1L304.61,159.248L321.762,169.203L321.762,168.055Z" style="fill:rgb(158,168,176);fill-rule:nonzero;"/>
        <path d="M365.424,214.239L365.424,215.386L386.34,227.526L386.34,226.379L365.424,214.239Z" style="fill:rgb(158,168,176);fill-rule:nonzero;"/>
        <path d="M399.356,235.08L399.602,235.222L411.36,228.634L410.875,227.768L399.609,234.08L387.333,226.955L387.333,228.103L399.356,235.08Z" style="fill:rgb(158,168,176);fill-rule:nonzero;"/>
        <path d="M292.146,171.705L291.648,172.563L303.619,179.512L303.619,178.363L292.146,171.705Z" style="fill:rgb(158,168,176);fill-rule:nonzero;"/>
        <path d="M344.75,202.239L344.75,203.386L364.432,214.809L364.432,213.662L344.75,202.239Z" style="fill:rgb(158,168,176);fill-rule:nonzero;"/>
        <path d="M322.754,189.471L322.754,190.618L343.758,202.809L343.758,201.662L322.754,189.471Z" style="fill:rgb(158,168,176);fill-rule:nonzero;"/>
        <path d="M304.61,178.94L304.61,180.087L321.762,190.042L321.762,188.894L304.61,178.94Z" style="fill:rgb(158,168,176);fill-rule:nonzero;"/>
        <path d="M304.61,170.163L303.619,169.588L303.619,178.363L304.61,178.94L304.61,170.163Z" style="fill:rgb(158,168,176);fill-rule:nonzero;"/>
        <path d="M304.61,119.555L303.619,118.979L303.619,127.754L304.61,128.33L304.61,119.555Z" style="fill:rgb(158,168,176);fill-rule:nonzero;"/>
        <path d="M304.61,129.478L303.619,128.902L303.619,136.685L304.61,137.262L304.61,129.478Z" style="fill:rgb(158,168,176);fill-rule:nonzero;"/>
        <path d="M303.619,190.755L304.61,190.755L304.61,180.087L303.619,179.512L303.619,190.755Z" style="fill:rgb(158,168,176);fill-rule:nonzero;"/>
        <path d="M304.61,77.877L303.619,77.301L303.619,86.077L304.61,86.652L304.61,77.877Z" style="fill:rgb(158,168,176);fill-rule:nonzero;"/>
        <path d="M304.61,109.631L303.619,109.056L303.619,117.831L304.61,118.408L304.61,109.631Z" style="fill:rgb(158,168,176);fill-rule:nonzero;"/>
        <path d="M304.61,87.801L303.619,87.224L303.619,96.992L304.61,97.568L304.61,87.801Z" style="fill:rgb(158,168,176);fill-rule:nonzero;"/>
        <path d="M304.61,138.409L303.619,137.834L303.619,147.601L304.61,148.178L304.61,138.409Z" style="fill:rgb(158,168,176);fill-rule:nonzero;"/>
        <path d="M304.61,159.248L303.619,158.673L303.619,168.44L304.61,169.016L304.61,159.248Z" style="fill:rgb(158,168,176);fill-rule:nonzero;"/>
        <path d="M304.61,98.716L303.619,98.14L303.619,107.908L304.61,108.484L304.61,98.716Z" style="fill:rgb(158,168,176);fill-rule:nonzero;"/>
        <path d="M304.61,61.441L317.082,55.977L316.685,55.069L303.619,60.792L303.619,76.153L304.61,76.729L304.61,61.441Z" style="fill:rgb(158,168,176);fill-rule:nonzero;"/>
        <path d="M304.61,149.325L303.619,148.749L303.619,157.524L304.61,158.1L304.61,149.325Z" style="fill:rgb(158,168,176);fill-rule:nonzero;"/>
        <path d="M322.754,148.94L321.762,148.365L321.762,158.132L322.754,158.708L322.754,148.94Z" style="fill:rgb(158,168,176);fill-rule:nonzero;"/>
        <path d="M322.754,109.246L321.762,108.671L321.762,118.439L322.754,119.015L322.754,109.246Z" style="fill:rgb(158,168,176);fill-rule:nonzero;"/>
        <path d="M322.754,98.331L321.762,97.756L321.762,107.523L322.754,108.099L322.754,98.331Z" style="fill:rgb(158,168,176);fill-rule:nonzero;"/>
        <path d="M321.762,180.119L321.762,188.894L322.754,189.471L322.754,180.695L321.762,180.119Z" style="fill:rgb(158,168,176);fill-rule:nonzero;"/>
        <path d="M322.754,159.856L321.762,159.28L321.762,168.055L322.754,168.632L322.754,159.856Z" style="fill:rgb(158,168,176);fill-rule:nonzero;"/>
        <path d="M322.754,97.184L322.754,88.408L321.762,87.832L321.762,96.607L322.754,97.184Z" style="fill:rgb(158,168,176);fill-rule:nonzero;"/>
        <path d="M322.754,169.779L321.762,169.203L321.762,178.971L322.754,179.547L322.754,169.779Z" style="fill:rgb(158,168,176);fill-rule:nonzero;"/>
        <path d="M321.762,201.344L322.754,201.344L322.754,190.618L321.762,190.042L321.762,201.344Z" style="fill:rgb(158,168,176);fill-rule:nonzero;"/>
        <path d="M322.754,140.009L321.762,139.433L321.762,147.216L322.754,147.793L322.754,140.009Z" style="fill:rgb(158,168,176);fill-rule:nonzero;"/>
        <path d="M322.754,72.029L335.225,66.566L334.827,65.657L321.762,71.381L321.762,86.684L322.754,87.261L322.754,72.029Z" style="fill:rgb(158,168,176);fill-rule:nonzero;"/>
        <path d="M322.754,120.162L321.762,119.587L321.762,128.362L322.754,128.939L322.754,120.162Z" style="fill:rgb(158,168,176);fill-rule:nonzero;"/>
        <path d="M322.754,130.086L321.762,129.51L321.762,138.285L322.754,138.861L322.754,130.086Z" style="fill:rgb(158,168,176);fill-rule:nonzero;"/>
        <path d="M343.758,192.886L343.758,201.662L344.75,202.239L344.75,193.462L343.758,192.886Z" style="fill:rgb(158,168,176);fill-rule:nonzero;"/>
        <path d="M343.758,141.129L344.75,141.706L344.75,132.93L343.758,132.353L343.758,141.129Z" style="fill:rgb(158,168,176);fill-rule:nonzero;"/>
        <path d="M343.758,181.97L343.758,191.739L344.75,192.315L344.75,182.547L343.758,181.97Z" style="fill:rgb(158,168,176);fill-rule:nonzero;"/>
        <path d="M343.758,131.206L344.75,131.783L344.75,122.015L343.758,121.438L343.758,131.206Z" style="fill:rgb(158,168,176);fill-rule:nonzero;"/>
        <path d="M344.75,84.598L357.222,79.136L356.824,78.226L343.758,83.95L343.758,99.451L344.75,100.028L344.75,84.598Z" style="fill:rgb(158,168,176);fill-rule:nonzero;"/>
        <path d="M344.75,120.867L344.75,111.098L343.758,110.522L343.758,120.29L344.75,120.867Z" style="fill:rgb(158,168,176);fill-rule:nonzero;"/>
        <path d="M343.758,151.052L344.75,151.629L344.75,142.853L343.758,142.277L343.758,151.052Z" style="fill:rgb(158,168,176);fill-rule:nonzero;"/>
        <path d="M344.75,109.951L344.75,101.175L343.758,100.599L343.758,109.374L344.75,109.951Z" style="fill:rgb(158,168,176);fill-rule:nonzero;"/>
        <path d="M343.758,213.913L344.75,213.913L344.75,203.386L343.758,202.809L343.758,213.913Z" style="fill:rgb(158,168,176);fill-rule:nonzero;"/>
        <path d="M343.758,170.9L344.75,171.476L344.75,161.708L343.758,161.131L343.758,170.9Z" style="fill:rgb(158,168,176);fill-rule:nonzero;"/>
        <path d="M343.758,180.823L344.75,181.399L344.75,172.623L343.758,172.047L343.758,180.823Z" style="fill:rgb(158,168,176);fill-rule:nonzero;"/>
        <path d="M343.758,159.984L344.75,160.56L344.75,152.776L343.758,152.2L343.758,159.984Z" style="fill:rgb(158,168,176);fill-rule:nonzero;"/>
        <path d="M365.424,96.681L377.896,91.218L377.499,90.308L364.432,96.032L364.432,111.451L365.424,112.028L365.424,96.681Z" style="fill:rgb(158,168,176);fill-rule:nonzero;"/>
        <path d="M364.432,225.994L365.424,225.994L365.424,215.386L364.432,214.809L364.432,225.994Z" style="fill:rgb(158,168,176);fill-rule:nonzero;"/>
        <path d="M364.432,153.129L365.424,153.705L365.424,144.93L364.432,144.353L364.432,153.129Z" style="fill:rgb(158,168,176);fill-rule:nonzero;"/>
        <path d="M364.432,163.053L365.424,163.629L365.424,154.853L364.432,154.277L364.432,163.053Z" style="fill:rgb(158,168,176);fill-rule:nonzero;"/>
        <path d="M364.432,171.984L365.424,172.56L365.424,164.777L364.432,164.2L364.432,171.984Z" style="fill:rgb(158,168,176);fill-rule:nonzero;"/>
        <path d="M364.432,143.206L365.424,143.783L365.424,134.014L364.432,133.437L364.432,143.206Z" style="fill:rgb(158,168,176);fill-rule:nonzero;"/>
        <path d="M364.432,132.29L365.424,132.867L365.424,123.098L364.432,122.521L364.432,132.29Z" style="fill:rgb(158,168,176);fill-rule:nonzero;"/>
        <path d="M365.424,121.952L365.424,113.175L364.432,112.598L364.432,121.374L365.424,121.952Z" style="fill:rgb(158,168,176);fill-rule:nonzero;"/>
        <path d="M364.432,192.823L365.424,193.4L365.424,184.623L364.432,184.047L364.432,192.823Z" style="fill:rgb(158,168,176);fill-rule:nonzero;"/>
        <path d="M364.432,182.9L365.424,183.476L365.424,173.708L364.432,173.132L364.432,182.9Z" style="fill:rgb(158,168,176);fill-rule:nonzero;"/>
        <path d="M364.432,204.886L364.432,213.662L365.424,214.239L365.424,205.463L364.432,204.886Z" style="fill:rgb(158,168,176);fill-rule:nonzero;"/>
        <path d="M364.432,203.739L365.424,204.316L365.424,194.547L364.432,193.971L364.432,203.739Z" style="fill:rgb(158,168,176);fill-rule:nonzero;"/>
        <path d="M386.34,184.701L387.333,185.277L387.333,177.493L386.34,176.916L386.34,184.701Z" style="fill:rgb(158,168,176);fill-rule:nonzero;"/>
        <path d="M386.34,175.77L387.333,176.345L387.333,167.569L386.34,166.993L386.34,175.77Z" style="fill:rgb(158,168,176);fill-rule:nonzero;"/>
        <path d="M387.333,109.249L399.803,103.786L399.405,102.877L386.34,108.6L386.34,124.168L387.333,124.744L387.333,109.249Z" style="fill:rgb(158,168,176);fill-rule:nonzero;"/>
        <path d="M386.34,205.539L387.333,206.116L387.333,197.34L386.34,196.763L386.34,205.539Z" style="fill:rgb(158,168,176);fill-rule:nonzero;"/>
        <path d="M386.34,238.564L387.333,238.564L387.333,228.103L386.34,227.526L386.34,238.564Z" style="fill:rgb(158,168,176);fill-rule:nonzero;"/>
        <path d="M386.34,135.238L386.34,145.008L387.333,145.583L387.333,135.815L386.34,135.238Z" style="fill:rgb(158,168,176);fill-rule:nonzero;"/>
        <path d="M386.34,165.847L387.333,166.422L387.333,157.646L386.34,157.07L386.34,165.847Z" style="fill:rgb(158,168,176);fill-rule:nonzero;"/>
        <path d="M386.34,155.923L387.333,156.498L387.333,146.73L386.34,146.154L386.34,155.923Z" style="fill:rgb(158,168,176);fill-rule:nonzero;"/>
        <path d="M386.34,195.617L387.333,196.193L387.333,186.424L386.34,185.848L386.34,195.617Z" style="fill:rgb(158,168,176);fill-rule:nonzero;"/>
        <path d="M386.34,216.456L387.333,217.032L387.333,207.264L386.34,206.687L386.34,216.456Z" style="fill:rgb(158,168,176);fill-rule:nonzero;"/>
        <path d="M386.34,226.379L387.333,226.955L387.333,218.179L386.34,217.602L386.34,226.379Z" style="fill:rgb(158,168,176);fill-rule:nonzero;"/>
        <path d="M386.34,134.092L387.333,134.667L387.333,125.891L386.34,125.315L386.34,134.092Z" style="fill:rgb(158,168,176);fill-rule:nonzero;"/>
        <path d="M291.897,65.899L291.897,183.701L399.605,245.886C399.605,245.886 392.771,166.17 379.925,152.2C367.078,138.229 361.288,131.663 354.592,118.408C347.894,105.151 311.649,56.416 291.897,65.899Z" style="fill:rgb(230,230,230);fill-rule:nonzero;"/>
        <path d="M399.605,245.886C395.07,196.763 388.981,166.015 377.608,153.649C376.993,152.98 376.393,152.327 375.81,151.691C364.206,139.034 358.651,132.477 352.275,119.856C349.328,114.023 340.661,101.322 330.194,89.735C317.777,75.988 302.827,63.808 291.897,66.526L291.897,183.701L399.605,245.886Z" style="fill:rgb(246,136,65);fill-rule:nonzero;"/>
        <path d="M348.65,119.972L349.18,119.941L339.195,124.843L338.664,124.875L348.65,119.972Z" style="fill:rgb(139,120,99);fill-rule:nonzero;"/>
        <path d="M340.343,91.872L340.875,91.842L349.18,119.941L348.65,119.972L340.343,91.872Z" style="fill:rgb(199,125,11);fill-rule:nonzero;"/>
        <path d="M348.65,119.972L338.664,124.875L330.36,96.777L340.343,91.872L348.65,119.972Z" style="fill:rgb(255,172,42);fill-rule:nonzero;"/>
        <path d="M343.405,118.239C341.703,118.239 339.92,116.671 339.378,116.153L339.25,116.013C331.067,105.838 336.971,100.305 337.227,100.074L339.187,102.216C339.018,102.376 335.151,106.224 341.45,114.115C342.127,114.741 343.052,115.327 343.389,115.337L343.888,118.194C343.729,118.225 343.567,118.239 343.405,118.239Z" style="fill:rgb(103,63,48);fill-rule:nonzero;"/>
    </g>
</svg>
